<svg width="30" height="30" viewBox="0 0 30 30" fill="none" xmlns="http://www.w3.org/2000/svg">
<rect width="30" height="30" rx="15" fill="#FFEBD5"/>
<circle cx="13.2327" cy="9.2487" r="2.96796" fill="#FF881F"/>
<path fill-rule="evenodd" clip-rule="evenodd" d="M13.1427 8.54541C13.9339 8.54566 14.5752 9.18678 14.5753 9.97803V12.8774L18.9757 13.2114C20.3219 13.3134 21.3122 14.5162 21.1544 15.8569L20.4278 22.0239H13.4122L13.2687 22.1772L13.1007 22.0239H12.5772V21.5444L8.4376 17.7563C7.94522 17.3058 7.97251 16.5218 8.49521 16.1069C9.3706 15.4128 10.6093 15.4118 11.4854 16.105L11.7091 16.2817V9.97803C11.7091 9.18663 12.3513 8.54541 13.1427 8.54541Z" fill="#FFCFA4"/>
<rect x="10.5854" y="20.9154" width="11.2305" height="2.20256" rx="1.10128" fill="#FF881F"/>
</svg>
