<svg width="24" height="24" viewBox="0 0 24 24" fill="none" xmlns="http://www.w3.org/2000/svg">
<circle cx="12" cy="12" r="12" fill="#FF5A54"/>
<mask id="mask0_1_163" style="mask-type:alpha" maskUnits="userSpaceOnUse" x="0" y="0" width="24" height="24">
<circle cx="12" cy="12" r="12" fill="#FF5A54"/>
</mask>
<g mask="url(#mask0_1_163)">
<path d="M7.19232 14.9448C7.49686 14.8366 8.93435 14.3506 9.84999 14.0418C10.0306 13.9809 10.2261 13.9812 10.4066 14.0425L13.7443 15.177C14.1876 15.3276 14.4188 15.8146 14.2554 16.2533C14.1113 16.6402 13.7049 16.8624 13.3014 16.7751L10.6627 16.2041L13.0476 17.0694L18.3218 15.9059C18.6116 15.842 18.91 15.9686 19.0655 16.2213C19.2924 16.5898 19.1326 17.0735 18.7298 17.2318C16.8497 17.9712 14.1474 19.0091 12.8836 19.4933C12.4345 19.6654 11.9365 19.6435 11.5046 19.432C10.9958 19.1829 10.2947 18.8367 9.74247 18.5528C9.44668 18.4008 9.11212 18.3396 8.78252 18.3841L7.14921 18.6049L6.92266 14.8469L7.19232 14.9448Z" fill="white"/>
<rect x="4.5" y="13.9972" width="2.80641" height="5.40941" rx="0.708303" fill="white"/>
<circle cx="12.0858" cy="8.55115" r="4.6875" fill="white"/>
<path d="M12.4583 5.54944V6.47424H11.9596V5.54944H12.4583ZM12.3952 10.7037V11.5527H11.8965V10.7037H12.3952ZM12.6729 9.65895C12.6729 9.54111 12.6529 9.44221 12.613 9.36225C12.5751 9.28229 12.512 9.2118 12.4236 9.15078C12.3352 9.08976 12.2184 9.02979 12.0732 8.97087C11.7955 8.86145 11.5514 8.74783 11.341 8.62999C11.1306 8.51005 10.9664 8.36065 10.8486 8.1818C10.7308 8.00294 10.6718 7.77358 10.6718 7.49372C10.6718 7.2328 10.735 7.0066 10.8612 6.81512C10.9875 6.62153 11.1621 6.47213 11.3852 6.36692C11.6103 6.26171 11.8702 6.20911 12.1648 6.20911C12.3899 6.20911 12.5951 6.24277 12.7803 6.31011C12.9654 6.37744 13.1243 6.47424 13.2569 6.60049C13.3915 6.72674 13.4946 6.88245 13.5662 7.06762C13.6377 7.25069 13.6735 7.46005 13.6735 7.69572H12.6856C12.6856 7.57158 12.6729 7.46426 12.6477 7.37378C12.6224 7.2812 12.5856 7.20545 12.5372 7.14653C12.4888 7.08551 12.432 7.04027 12.3668 7.01081C12.3037 6.98135 12.2321 6.96662 12.1521 6.96662C12.0364 6.96662 11.9417 6.99082 11.8681 7.03921C11.7944 7.08551 11.7408 7.14863 11.7071 7.22859C11.6734 7.30855 11.6566 7.39798 11.6566 7.49688C11.6566 7.59788 11.6745 7.68626 11.7103 7.76201C11.7481 7.83776 11.8113 7.9072 11.8996 7.97032C11.988 8.03345 12.109 8.09763 12.2626 8.16286C12.5362 8.27438 12.7781 8.39222 12.9886 8.51636C13.199 8.63841 13.3631 8.78886 13.481 8.96772C13.6009 9.14447 13.6609 9.37277 13.6609 9.65263C13.6609 9.92618 13.5967 10.1587 13.4683 10.3502C13.3421 10.5417 13.1643 10.6879 12.9349 10.7889C12.7077 10.8878 12.4446 10.9372 12.1458 10.9372C11.9459 10.9372 11.7481 10.912 11.5525 10.8615C11.3589 10.8089 11.1821 10.7237 11.0222 10.6058C10.8623 10.488 10.735 10.3312 10.6403 10.1355C10.5456 9.93986 10.4982 9.69998 10.4982 9.41591H11.4862C11.4862 9.5632 11.5041 9.6863 11.5398 9.7852C11.5777 9.88199 11.6271 9.95985 11.6882 10.0188C11.7513 10.0756 11.8218 10.1166 11.8996 10.1419C11.9796 10.1671 12.0617 10.1797 12.1458 10.1797C12.2658 10.1797 12.3647 10.1566 12.4425 10.1103C12.5204 10.064 12.5782 10.0019 12.6161 9.92408C12.654 9.84412 12.6729 9.75574 12.6729 9.65895Z" fill="#FF5A54"/>
</g>
</svg>
