<svg xmlns="http://www.w3.org/2000/svg" width="200" height="200" fill="none" viewBox="0 0 200 200"><mask id="a" width="200" height="200" x="0" y="0" maskUnits="userSpaceOnUse" style="mask-type:alpha"><path fill="#d9d9d9" d="M0 0h200v200H0z"/></mask><g mask="url(#a)"><ellipse cx="13.638" cy="16.337" fill="#f19511" rx="13.638" ry="16.337" transform="matrix(.79413 -.60774 -.6422 -.76654 29.828 182.127)"/><ellipse cx="12.891" cy="16.337" fill="#ffc92f" rx="12.891" ry="16.337" transform="matrix(.79413 -.60774 -.6422 -.76654 32.117 180.117)"/><g filter="url(#b)"><ellipse cx="9.474" cy="12.007" fill="#f6a010" rx="9.474" ry="12.007" transform="matrix(.79413 -.60774 -.6422 -.76654 32.05 174.722)"/></g><path fill="#feca2f" d="M35.235 164.645a1 1 0 0 0 1.242-1.242l-.654-2.218a1 1 0 0 1 .06-.72l1.013-2.085a1 1 0 0 0-.687-1.414l-2.825-.615a1 1 0 0 1-.516-.293l-1.966-2.096a1 1 0 0 0-1.665.332l-.691 1.836a1 1 0 0 1-.584.583l-1.836.691a1 1 0 0 0-.332 1.666l2.096 1.965c.148.139.25.319.294.517l.614 2.825a1 1 0 0 0 1.415.686l2.084-1.013c.224-.109.481-.13.72-.06z"/><ellipse cx="105.764" cy="195.219" fill="#eaeaea" rx="48.222" ry="5.299"/><path fill="#ffa857" d="M90.528 139.477s4.55-.802 5.312-3.075c.526-1.569 2.54-13.25 2.54-13.25s-7.95 5.299-14.308 11.128c-1.32 1.21-6.816 3.475-6.816 3.475l2.015 4.24s1.954-.929 3.999-1.665 7.258-.853 7.258-.853m-2.926 37.586h11.247s-1.25 4.686-1.562 7.81c-.258 2.575 0 6.561 0 6.561h-6.873s0-3.124-.313-6.249c-.312-3.124-2.5-8.122-2.5-8.122m34.678-1.875H109.47s1.875 6.561 2.187 9.685c.258 2.575 0 6.561 0 6.561h6.873s0-3.124.313-6.248c.312-3.125 3.436-9.998 3.436-9.998"/><path fill="#ffc563" d="M141.444 153.974c0 18.634-16.668 27.804-35.302 27.804-18.635 0-35.303-9.17-35.303-27.804 0-18.635 22.806-42.801 35.303-42.801s35.302 24.166 35.302 42.801"/><path fill="#edad40" d="M106.142 111.173c5.047 0 11.775 3.943 18.004 9.87-5.242 1.004-11.091 1.743-17.295 1.891-8.265.197-14.713-.31-19.592-1.039 6.468-6.399 13.597-10.722 18.883-10.722"/><path fill="#feedd3" d="M85.505 168.957c-14.403-13.037 4.337-33.819 15.508-42.58 4.47-3.464 8.959-1.444 10.645 0 27.335 22.814 21.64 37.892 15.376 42.58-7.842 5.432-27.125 13.036-41.529 0"/><path fill="#734b27" d="M99.473 192.683c0 1.726-2.797 1.875-6.248 1.875s-6.873-.149-6.873-1.875 2.5-4.374 6.873-4.374c3.75 0 6.248 2.649 6.248 4.374m11.874-.605c0 1.725 2.797 1.874 6.248 1.874s6.873-.149 6.873-1.874-2.499-4.374-6.873-4.374c-3.749 0-6.248 2.648-6.248 4.374"/><path fill="#ffc563" d="M134.425 49.525c1.056 1.923 9.294 4.214 15.761.661 6.468-3.553 13.217-14.19 11.767-16.83s-13.522-1.41-19.99 2.143-9.315 10.79-7.538 14.026"/><path fill="#ff9e53" d="M140.479 46.018c.378.69 4.521.856 8.275-1.206s8.321-7.055 7.802-8c-.52-.947-7.021.689-10.775 2.751-3.754 2.063-5.939 5.296-5.302 6.455"/><path fill="#ffc563" d="M69.622 48.284c-.952 1.976-9.054 4.706-15.703 1.506s-13.96-13.46-12.653-16.173c1.306-2.714 13.426-2.135 20.075 1.065s9.882 10.275 8.28 13.602"/><path fill="#ff9e53" d="M64.648 45.678c-.365.696-4.504.942-8.297-1.047-3.793-1.99-8.455-6.894-7.954-7.85s7.033.555 10.826 2.545 6.04 5.18 5.425 6.352"/><g filter="url(#c)"><path fill="#f8dc3d" d="m114.435 32.844 7.728 3.203c.845-2.729 4.447-8.635 12.093-10.43 11.9-2.348 16.214.724 24.05 2.474s18.125-.83 22.176-6.357 2.038-6.881.865-8.012c-.962-.927-6.379-2.535-7.75-.212-2.185 4.13-4.504 5.668-5.39 5.921-6.55 1.487-10.4.64-11.506.03 3.602-1.335 8.302-4.784 10.202-6.342 1.964-2.747 3.93-8.753-3.925-10.805-7.855-2.053-9.307 1.621-9.051 3.715.384 1.228.627 4.589-1.478 8.208-2.63 4.524-12.743 3.173-15.318 1.98-2.576-1.192-1.367-4.925-2.248-9.396-.882-4.47-10.937-.31-10.56 3.621s.794 4.245.42 7.335c-.557 4.61-6.872 11.98-10.308 15.066"/></g><g filter="url(#d)"><path fill="#f8dc3d" d="m86.93 32.724-7.599 3.962c-.874-2.72-4.631-9.267-12.295-10.983-11.924-2.225-16.206.892-24.024 2.722s-18.131-.641-22.24-6.127-2.109-6.86-.947-8.002c.952-.937 6.352-2.602 7.747-.293 2.228 4.107 4.562 5.621 5.45 5.865 6.566 1.42 10.407.533 11.507-.088-3.616-1.299-8.351-4.7-10.267-6.237-1.993-2.726-4.02-8.712 3.813-10.845s9.323 1.525 9.089 3.621c-.372 1.232-.58 4.595 1.562 8.192 2.677 4.497 12.775 3.041 15.338 1.822s1.316-4.94 2.15-9.418c.836-4.48 10.934-.423 10.598 3.511-.337 3.934-.75 4.253-.345 7.339.605 4.604 6.996 11.907 10.463 14.959"/></g><path fill="#eea830" d="M92.57 32.57c.693-3.637-2.832-5.928-4.681-6.619 1.772-2.477 7.557-1.376 10.229-.516-.47-4.122 2.323-8.098 3.779-9.571.34 4.32 2.016 7.449 2.812 8.473 4.254-2.194 7.953-2.096 9.271-1.773-3.125 2.718-4.3 6.722-4.497 8.384z"/><path fill="#ffc563" d="M143.725 70.59c.451 22.71 15.74 46.916-40.537 46.945-54.007 3.346-41.213-22.272-41.664-44.981-.45-22.709 13.383-41.674 39.932-42.201 27.8-.552 41.818 17.529 42.269 40.238"/><path fill="#734b27" d="M129.321 50.601c-7.254-8.404-16.626-6.621-15.623-1.471-.058 1.524 1.741 2.487 3.832.772 4.011-4.07 9.842-.96 11.791.7m-53.093-.25c7.611-8.083 16.897-5.896 15.672-.794-.008 1.525-1.847 2.41-3.862.605-3.831-4.239-9.792-1.384-11.81.189"/><g filter="url(#e)"><path fill="#fff" d="M115.727 73.699c-2.117-10.468 6.494-16.327 7.056-16.52 3.425-1.172 13.463 6.64 13.132 12.685-.291 5.302-4.614 7.403-6.451 7.82-3.903.942-12.115 1.463-13.737-3.985"/></g><path fill="#3b1e04" d="M121.73 60.021c4.485-.43 8.516 3.35 9.005 8.442.449 4.682-2.255 8.842-6.18 9.815-2.321.022-4.761-.348-6.532-1.516a9.1 9.1 0 0 1-1.922-2.115 5.6 5.6 0 0 1-.375-.947c-1.151-5.688.927-9.984 3.121-12.77a7.3 7.3 0 0 1 2.883-.909"/><ellipse cx="118.14" cy="70.403" fill="#fff" rx="1.891" ry="2.965" transform="rotate(5.244 118.14 70.403)"/><ellipse cx="121.525" cy="73.503" fill="#fff" rx="1.361" ry="1.372" transform="rotate(5.244 121.525 73.503)"/><g filter="url(#f)"><path fill="#fff" d="M90.196 74.113c1.312-10.599-7.59-15.75-8.296-15.933-3.504-.908-12.917 7.647-12.126 13.649.695 5.265 5.166 7.03 7.029 7.305 3.963.641 12.19.535 13.393-5.021"/></g><path fill="#3b1e04" d="M83.696 61.055c-4.476-.086-8.185 3.965-8.283 9.048-.089 4.595 2.802 8.459 6.664 9.224 3.609-.302 7.342-1.612 8.122-5.214.726-5.867-1.777-10.039-4.221-12.64a7.2 7.2 0 0 0-2.282-.418"/><ellipse cx="1.891" cy="2.965" fill="#fff" rx="1.891" ry="2.965" transform="rotate(170.38 41.603 37.626)scale(1 -1)"/><ellipse cx="1.361" cy="1.372" fill="#fff" rx="1.361" ry="1.372" transform="rotate(170.38 39.695 39.987)scale(1 -1)"/><path fill="#7a1700" d="M113.139 94.313c-5.268 3.075-15.394 2.458-19.162 1.04-.434-.163-.996.201-.918.658 1.007 5.903 5.242 12.319 11.532 11.715 5.992-.575 9.269-8.14 9.37-12.98.009-.416-.463-.642-.822-.433"/><path fill="#d52e08" d="M103.159 99.306c3.617-.347 6.89.967 8.546 3.155-1.582 2.742-3.974 4.963-7.114 5.265-3.669.351-6.636-1.686-8.674-4.615 1.43-2.009 4.087-3.502 7.242-3.805"/><path fill="#ff2f00" d="M117.694 82.154c.012 5.003-8.957 9.285-14.159 9.094-5.943-.218-14.191-4.019-14.204-9.022-.013-5.002 6.326-9.073 14.158-9.093s14.192 4.019 14.205 9.021"/><ellipse cx="109.52" cy="77.553" fill="#fff" opacity=".56" rx="4.098" ry="1.59" transform="rotate(20.53 109.52 77.553)"/><path fill="#ff6f00" d="m135.178 167.431-.01.201c-.424 4.191-14.149 7.556-31.017 7.556-17.135 0-31.025-3.473-31.025-7.757v-31.025h62.052z"/><mask id="g" width="63" height="40" x="73" y="136" maskUnits="userSpaceOnUse" style="mask-type:alpha"><path fill="#ff8707" d="m135.178 167.431-.01.201c-.424 4.191-14.149 7.556-31.017 7.556-17.135 0-31.025-3.473-31.025-7.757v-31.025h62.052z"/></mask><g fill="#e45d02" mask="url(#g)"><ellipse cx="104.152" cy="138.622" rx="32.134" ry="7.756"/><path d="M88.111 160.941c3.13-2.603-1.851-6.218-4.111-6.941h-1.626c-8.519 1.88-21.673 4.601-9.874 10.5 14 7 17.176 3.383 18.22 1.213 1.042-2.169-1.044-3.47-2.609-4.772m32.479-1.118c-3.37-2.283.938-4.798 3.116-5.74l1.618-.159c8.663 1.034 22.01 2.321 10.847 9.35-13.245 8.341-16.765 5.187-18.394 2.225-1.629-2.961 1.384-4.227 2.813-5.676"/></g><path fill="#ff8504" d="m137.394 136.406-.011.2c-.456 4.191-15.159 7.557-33.231 7.557s-32.776-3.366-33.231-7.557l-.011-.2v-9.973h66.484z"/><ellipse cx="104.152" cy="126.433" fill="#ffa226" rx="33.242" ry="7.756"/><mask id="h" width="68" height="17" x="70" y="118" maskUnits="userSpaceOnUse" style="mask-type:alpha"><ellipse cx="104.152" cy="126.433" fill="#fe9509" rx="33.242" ry="7.756"/></mask><g mask="url(#h)"><g filter="url(#i)"><path fill="#fc6500" d="M74.234 122.555c3.213 4.285 14.405 6.833 18.837 7.203l2.216-2.771-18.283-7.756c-1.847-.923-6.094-1.108-2.77 3.324"/></g><g filter="url(#j)"><path fill="#fc6500" d="M134.07 122.555c-3.214 4.285-14.405 6.833-18.837 7.203l-2.217-2.771 18.283-7.756c1.847-.923 6.095-1.108 2.771 3.324"/></g></g><path fill="#e45d02" d="m86.01 131.057 6.18-3.272h20.272l-12.322 5.476a9.97 9.97 0 0 0-5.922 9.113v13.513c0 .929-1.075 1.445-1.8.865l-4.404-3.523a1.11 1.11 0 0 0-1.187-.125l-4.52 2.259a1.108 1.108 0 0 1-1.603-.991v-14.501a9.97 9.97 0 0 1 5.306-8.814"/><path fill="#ffefb3" d="m84.659 129.706 6.18-3.273h20.272l-12.322 5.477a9.97 9.97 0 0 0-5.923 9.113v13.512a1.108 1.108 0 0 1-1.8.866l-4.403-3.523a1.11 1.11 0 0 0-1.188-.126l-4.52 2.26a1.108 1.108 0 0 1-1.603-.991v-14.502a9.97 9.97 0 0 1 5.307-8.813"/><mask id="k" width="33" height="30" x="79" y="126" maskUnits="userSpaceOnUse" style="mask-type:alpha"><path fill="#ffefb3" d="m84.659 129.752 6.268-3.319h20.427l-12.462 5.539a9.97 9.97 0 0 0-5.922 9.113v13.683c0 .93-1.075 1.446-1.8.866l-4.455-3.564a1.11 1.11 0 0 0-1.188-.126l-4.571 2.285a1.108 1.108 0 0 1-1.604-.991v-14.672a9.97 9.97 0 0 1 5.307-8.814"/></mask><g mask="url(#k)"><path fill="#fed272" d="M102.584 128.067c-6.205 3.102-14.774.923-18.283-.554l-1.108-3.324 17.175-1.662c3.324.554 8.421 2.437 2.216 5.54"/></g><path fill="#e45d02" d="m123.035 131.057-6.18-3.272H96.583l12.322 5.476a9.97 9.97 0 0 1 5.922 9.113v13.513c0 .929 1.075 1.445 1.801.865l4.403-3.523c.337-.27.801-.319 1.188-.125l4.519 2.259a1.108 1.108 0 0 0 1.604-.991v-14.501a9.97 9.97 0 0 0-5.307-8.814"/><path fill="#ffefb3" d="m124.387 129.706-6.181-3.273H97.934l12.323 5.477a9.97 9.97 0 0 1 5.922 9.113v13.512c0 .929 1.075 1.446 1.8.866l4.403-3.523a1.11 1.11 0 0 1 1.188-.126l4.52 2.26a1.108 1.108 0 0 0 1.603-.991v-14.502a9.97 9.97 0 0 0-5.306-8.813"/><mask id="l" width="33" height="30" x="97" y="126" maskUnits="userSpaceOnUse" style="mask-type:alpha"><path fill="#ffefb3" d="m124.387 129.752-6.269-3.319H97.691l12.462 5.539a9.97 9.97 0 0 1 5.922 9.113v13.683c0 .93 1.075 1.446 1.801.866l4.455-3.564c.337-.27.801-.32 1.187-.126l4.572 2.285a1.107 1.107 0 0 0 1.603-.991v-14.672a9.98 9.98 0 0 0-5.306-8.814"/></mask><g mask="url(#l)"><path fill="#fed272" d="M106.461 128.067c6.205 3.102 14.774.923 18.283-.554l1.108-3.324-17.175-1.662c-3.324.554-8.421 2.437-2.216 5.54"/></g><path fill="#ffeeb3" d="M98.083 116.599c.443 1.33 2.031 3.879 2.77 4.987.554 1.108 1.219 3.989-.554 6.648-13.851 2.77-37.675-7.202-24.378-18.837s21.608 5.54 22.162 7.202"/><path fill="#feb838" d="M89.772 120.478c2.216 2.216 7.572 4.247 9.973 4.986.369.739.775 2.105-.554 1.662-1.662-.554-10.527-.554-12.743-.554-11.08-.554-16.067-11.635-11.08-13.851 4.986-2.216 11.634 4.986 14.404 7.757"/><path fill="#ffeeb3" d="M109.734 116.599c-.443 1.33-2.031 3.879-2.77 4.987-.554 1.108-1.219 3.989.554 6.648 13.851 2.77 37.674-7.202 24.378-18.837-13.297-11.635-21.608 5.54-22.162 7.202"/><path fill="#feb838" d="M118.045 120.478c-2.216 2.216-7.572 4.247-9.973 4.986-.369.739-.776 2.105.554 1.662 1.662-.554 10.527-.554 12.743-.554 11.081-.554 16.067-11.635 11.081-13.851s-11.635 4.986-14.405 7.757"/><path fill="#ffefb3" d="M110.597 123.575c-2.529-3.313-7.584-3.313-10.113-1.325-6.663 5.238-.902 8.616 5.057 8.616 6.742 0 7.585-3.977 5.056-7.291"/><path fill="#ffc563" d="M74.158 162.705c-17.396-10.922-8.838-28.932-3.259-32.871.116 5.598-.016 6.005.253 7.124.263 1.096 1.268 1.815 1.968 2.237v6.467c2.04 2.112 6.538 6.314 6.721 6.779.23.582 5.97 1.349 6.898 3.447 1.222 2.762-1.125 3.662-3.013 3.723 2.41.35 5.054 1.972 5.06 3.98.012 4.539-7.293 4.097-14.628-.886"/><mask id="m" width="26" height="38" x="63" y="129" maskUnits="userSpaceOnUse" style="mask-type:alpha"><path fill="#fec95d" d="M74.158 162.705c-17.396-10.921-8.838-28.931-3.259-32.871.116 5.598-.016 6.005.253 7.124.263 1.096 1.268 1.815 1.968 2.237v6.467c2.04 2.112 6.538 6.314 6.721 6.779.23.582 5.97 1.349 6.898 3.447 1.222 2.762-1.125 3.662-3.013 3.723 2.41.35 5.054 1.972 5.06 3.98.012 4.539-7.293 4.097-14.628-.886"/></mask><g mask="url(#m)"><path fill="#6f4626" d="M77.06 170.76c-7.458-11.232.227-18.005 5.001-19.988l9.168-.359 11.054 15.126c-5.301 6.421-17.767 16.454-25.224 5.221"/></g><path fill="#ffc563" d="M133.988 162.731c17.396-10.922 8.839-28.932 3.259-32.871-.115 5.598.016 6.005-.253 7.124-.263 1.095-1.268 1.815-1.968 2.237v6.467c-2.039 2.112-6.538 6.314-6.721 6.779-.229.582-5.969 1.349-6.897 3.447-1.223 2.762 1.124 3.662 3.012 3.723-2.41.35-5.053 1.971-5.059 3.98-.013 4.539 7.292 4.096 14.627-.886"/><mask id="n" width="26" height="38" x="119" y="129" maskUnits="userSpaceOnUse" style="mask-type:alpha"><path fill="#fec95d" d="M133.988 162.731c17.396-10.922 8.839-28.932 3.259-32.871-.115 5.598.016 6.005-.253 7.124-.263 1.095-1.268 1.815-1.968 2.237v6.467c-2.039 2.112-6.538 6.314-6.721 6.779-.229.582-5.969 1.349-6.897 3.447-1.223 2.762 1.124 3.662 3.012 3.723-2.41.35-5.053 1.971-5.059 3.98-.013 4.539 7.292 4.096 14.627-.886"/></mask><g mask="url(#n)"><path fill="#6f4626" d="M131.087 170.786c7.457-11.232-.228-18.005-5.002-19.988l-9.168-.359-11.053 15.126c5.3 6.421 17.766 16.454 25.223 5.221"/></g><ellipse cx="11.805" cy="14.093" fill="#f19511" rx="11.805" ry="14.093" transform="matrix(-.79413 -.60774 .6422 -.76654 170.452 201.978)"/><ellipse cx="11.12" cy="14.093" fill="#ffc92f" rx="11.12" ry="14.093" transform="matrix(-.79413 -.60774 .6422 -.76654 168.413 200.194)"/><g filter="url(#o)"><ellipse cx="8.173" cy="10.358" fill="#f6a010" rx="8.173" ry="10.358" transform="matrix(-.79413 -.60774 .6422 -.76654 168.472 195.54)"/></g><path fill="#feca2f" d="M165.009 185.904a1 1 0 0 1-.887-1.517l.874-1.445c.129-.214.173-.468.125-.712l-.345-1.738a1 1 0 0 1 1.023-1.194l2.274.096a1 1 0 0 0 .574-.152l1.876-1.179a1 1 0 0 1 1.526.743l.146 1.402c.03.286.181.546.416.713l1.15.814a1 1 0 0 1-.101 1.695l-1.948 1.056a1 1 0 0 0-.414.426l-1.032 2.028a1 1 0 0 1-1.543.306l-1.344-1.153a1 1 0 0 0-.682-.241z"/></g><defs><filter id="b" width="21.547" height="21.716" x="21.088" y="148.902" color-interpolation-filters="sRGB" filterUnits="userSpaceOnUse"><feFlood flood-opacity="0" result="BackgroundImageFix"/><feBlend in="SourceGraphic" in2="BackgroundImageFix" result="shape"/><feColorMatrix in="SourceAlpha" result="hardAlpha" values="0 0 0 0 0 0 0 0 0 0 0 0 0 0 0 0 0 0 127 0"/><feOffset dy="2"/><feComposite in2="hardAlpha" k2="-1" k3="1" operator="arithmetic"/><feColorMatrix values="0 0 0 0 0.87639 0 0 0 0 0.52229 0 0 0 0 0.0438787 0 0 0 1 0"/><feBlend in2="shape" result="effect1_innerShadow_47_763"/></filter><filter id="c" width="68.461" height="34.337" x="114.435" y="1.711" color-interpolation-filters="sRGB" filterUnits="userSpaceOnUse"><feFlood flood-opacity="0" result="BackgroundImageFix"/><feBlend in="SourceGraphic" in2="BackgroundImageFix" result="shape"/><feColorMatrix in="SourceAlpha" result="hardAlpha" values="0 0 0 0 0 0 0 0 0 0 0 0 0 0 0 0 0 0 127 0"/><feOffset/><feGaussianBlur stdDeviation="3.749"/><feComposite in2="hardAlpha" k2="-1" k3="1" operator="arithmetic"/><feColorMatrix values="0 0 0 0 1 0 0 0 0 0.657111 0 0 0 0 0.177067 0 0 0 0.25 0"/><feBlend in2="shape" result="effect1_innerShadow_47_763"/></filter><filter id="d" width="68.627" height="34.634" x="18.303" y="2.052" color-interpolation-filters="sRGB" filterUnits="userSpaceOnUse"><feFlood flood-opacity="0" result="BackgroundImageFix"/><feBlend in="SourceGraphic" in2="BackgroundImageFix" result="shape"/><feColorMatrix in="SourceAlpha" result="hardAlpha" values="0 0 0 0 0 0 0 0 0 0 0 0 0 0 0 0 0 0 127 0"/><feOffset/><feGaussianBlur stdDeviation="3.749"/><feComposite in2="hardAlpha" k2="-1" k3="1" operator="arithmetic"/><feColorMatrix values="0 0 0 0 1 0 0 0 0 0.657111 0 0 0 0 0.177067 0 0 0 0.25 0"/><feBlend in2="shape" result="effect1_innerShadow_47_763"/></filter><filter id="e" width="21.155" height="21.844" x="115.393" y="56.437" color-interpolation-filters="sRGB" filterUnits="userSpaceOnUse"><feFlood flood-opacity="0" result="BackgroundImageFix"/><feColorMatrix in="SourceAlpha" result="hardAlpha" values="0 0 0 0 0 0 0 0 0 0 0 0 0 0 0 0 0 0 127 0"/><feOffset dx=".625" dy="-.625"/><feComposite in2="hardAlpha" operator="out"/><feColorMatrix values="0 0 0 0 0.313726 0 0 0 0 0.156863 0 0 0 0 0.0117647 0 0 0 1 0"/><feBlend in2="BackgroundImageFix" result="effect1_dropShadow_47_763"/><feBlend in="SourceGraphic" in2="effect1_dropShadow_47_763" result="shape"/></filter><filter id="f" width="21.225" height="21.913" x="69.103" y="57.488" color-interpolation-filters="sRGB" filterUnits="userSpaceOnUse"><feFlood flood-opacity="0" result="BackgroundImageFix"/><feColorMatrix in="SourceAlpha" result="hardAlpha" values="0 0 0 0 0 0 0 0 0 0 0 0 0 0 0 0 0 0 127 0"/><feOffset dx="-.625" dy="-.625"/><feComposite in2="hardAlpha" operator="out"/><feColorMatrix values="0 0 0 0 0.313726 0 0 0 0 0.156863 0 0 0 0 0.0117647 0 0 0 1 0"/><feBlend in2="BackgroundImageFix" result="effect1_dropShadow_47_763"/><feBlend in="SourceGraphic" in2="effect1_dropShadow_47_763" result="shape"/></filter><filter id="i" width="24.503" height="13.276" x="71.893" y="117.589" color-interpolation-filters="sRGB" filterUnits="userSpaceOnUse"><feFlood flood-opacity="0" result="BackgroundImageFix"/><feBlend in="SourceGraphic" in2="BackgroundImageFix" result="shape"/><feGaussianBlur result="effect1_foregroundBlur_47_763" stdDeviation=".554"/></filter><filter id="j" width="24.503" height="13.276" x="111.908" y="117.589" color-interpolation-filters="sRGB" filterUnits="userSpaceOnUse"><feFlood flood-opacity="0" result="BackgroundImageFix"/><feBlend in="SourceGraphic" in2="BackgroundImageFix" result="shape"/><feGaussianBlur result="effect1_foregroundBlur_47_763" stdDeviation=".554"/></filter><filter id="o" width="18.587" height="18.733" x="159.34" y="173.267" color-interpolation-filters="sRGB" filterUnits="userSpaceOnUse"><feFlood flood-opacity="0" result="BackgroundImageFix"/><feBlend in="SourceGraphic" in2="BackgroundImageFix" result="shape"/><feColorMatrix in="SourceAlpha" result="hardAlpha" values="0 0 0 0 0 0 0 0 0 0 0 0 0 0 0 0 0 0 127 0"/><feOffset dy="2"/><feComposite in2="hardAlpha" k2="-1" k3="1" operator="arithmetic"/><feColorMatrix values="0 0 0 0 0.87639 0 0 0 0 0.52229 0 0 0 0 0.0438787 0 0 0 1 0"/><feBlend in2="shape" result="effect1_innerShadow_47_763"/></filter></defs></svg>