<svg xmlns="http://www.w3.org/2000/svg" width="153" height="121" viewBox="0 0 153 121" fill="none">
  <path d="M104.089 58.7694C104.516 60.4827 110.456 63.9586 116.22 62.5226C121.983 61.0867 129.421 54.1952 128.835 51.8429C128.249 49.4906 118.601 47.9665 112.838 49.4024C107.075 50.8383 103.371 55.8859 104.089 58.7694Z" fill="#FFC563"/>
  <path d="M109.521 57.2842C109.674 57.8982 112.864 58.8793 116.209 58.0458C119.554 57.2123 124.135 54.2656 123.925 53.4227C123.715 52.5797 118.319 52.5165 114.974 53.35C111.629 54.1836 109.263 56.2509 109.521 57.2842Z" fill="#FF9E53"/>
  <path d="M52.326 47.6261C51.1794 48.9688 44.3123 49.4284 39.7956 45.5715C35.279 41.7146 31.6978 32.2277 33.2719 30.3842C34.846 28.5406 44.1601 31.4822 48.6767 35.3391C53.1933 39.1961 54.2558 45.3663 52.326 47.6261Z" fill="#FFC563"/>
  <path d="M48.9907 44.576C48.5634 45.0427 45.2917 44.3837 42.7488 42.0557C40.2059 39.7276 37.5852 34.9532 38.1718 34.3124C38.7583 33.6716 43.531 36.1893 46.0739 38.5174C48.6168 40.8455 49.7097 43.7906 48.9907 44.576Z" fill="#FF9E53"/>
  <g filter="url(#filter0_i_100_2990)">
    <path d="M91.9599 41.6788L97.3156 45.7601C98.5343 43.8101 102.552 39.9537 108.871 40.1278C118.614 40.7458 121.341 44.0239 127.08 46.9959C132.819 49.968 141.355 50.0752 145.644 46.6054C149.933 43.1357 148.644 41.6691 147.964 40.5483C147.405 39.6291 143.52 37.2642 141.976 38.7902C139.427 41.5553 137.306 42.2761 136.565 42.2909C131.161 42.1022 128.339 40.6517 127.603 39.95C130.681 39.6506 135.048 37.9321 136.846 37.1103C138.94 35.3765 141.704 31.1059 136.012 27.8946C130.321 24.6832 128.436 27.2441 128.205 28.926C128.252 29.9606 127.75 32.6259 125.368 35.0102C122.391 37.9906 114.799 34.8606 113.04 33.4034C111.28 31.9462 112.988 29.2892 113.221 25.629C113.454 21.9688 104.773 23.1405 104.259 26.2768C103.744 29.4131 104.004 29.7437 103.079 32.0717C101.698 35.5448 95.2684 39.9821 91.9599 41.6788Z" fill="#F8DC3D"/>
  </g>
  <g filter="url(#filter1_i_100_2990)">
    <path d="M69.8131 36.6703L63.2224 38.0499C62.9614 35.7653 60.9944 30.5556 55.2152 27.9937C46.154 24.3591 42.2824 26.145 35.823 26.3585C29.3636 26.5719 21.6116 22.9955 19.2329 18.0179C16.8542 13.0403 18.6488 12.271 19.7455 11.5522C20.6449 10.9626 25.1694 10.4995 25.9067 12.5414C27.0185 16.1345 28.6225 17.6976 29.2855 18.03C34.2443 20.1847 37.416 20.0896 38.382 19.7728C35.7326 18.1783 32.5302 14.7481 31.2602 13.2323C30.1165 10.7664 29.4591 5.72207 35.9785 5.27216C42.4978 4.82225 43.0975 7.94507 42.5825 9.56272C42.0951 10.4765 41.4012 13.0983 42.5251 16.2754C43.93 20.2467 52.1305 20.6883 54.3455 20.1298C56.5606 19.5714 56.1623 16.4382 57.527 13.0339C58.8917 9.62964 66.2239 14.4227 65.3386 17.4751C64.4533 20.5274 64.0763 20.714 63.9102 23.2138C63.6625 26.9432 67.5566 33.7151 69.8131 36.6703Z" fill="#F8DC3D"/>
  </g>
  <path d="M74.9995 36.9733C76.2863 34.2842 74.0138 31.7769 72.7168 30.8593C74.6044 29.2959 78.8809 31.3414 80.7832 32.5595C81.2646 29.2551 84.2557 26.7347 85.6911 25.8876C85.0679 29.3198 85.7299 32.0994 86.1388 33.0601C89.9005 32.2269 92.7591 33.0631 93.7182 33.5854C90.7276 35.0586 88.99 37.9331 88.495 39.1861L74.9995 36.9733Z" fill="#EEA830" stroke="#E9A128" stroke-width="0.430595"/>
  <path d="M107.085 76.5567C103.052 94.3888 110.325 116.257 66.3433 105.412C23.4951 97.5981 38.4396 80.0499 42.4723 62.2178C46.505 44.3856 60.9769 32.237 81.8253 36.9518C103.655 41.8884 111.117 58.7245 107.085 76.5567Z" fill="#FFC563"/>
  <path d="M99.9478 58.326C96.0295 50.2944 88.3696 49.7563 88.0918 53.9702C87.7337 55.1443 88.9354 56.2635 90.9157 55.3586C94.8733 53.0162 98.7725 56.6347 99.9478 58.326Z" fill="#734B27"/>
  <path d="M58.6271 47.4529C66.2115 42.7266 72.9885 46.3372 70.9868 50.0557C70.667 51.2408 69.0545 51.5513 67.8567 49.7331C65.7464 45.6471 60.5211 46.6435 58.6271 47.4529Z" fill="#734B27"/>
  <g filter="url(#filter2_d_100_2990)">
    <path d="M84.5694 73.7401C85.0729 65.1586 92.9786 62.368 93.4558 62.334C96.3618 62.1255 102.569 70.268 101.069 74.904C99.753 78.9711 95.9563 79.7178 94.4413 79.6643C91.2103 79.5951 84.7124 78.3135 84.5694 73.7401Z" fill="white"/>
  </g>
  <g filter="url(#filter3_d_100_2990)">
    <path d="M64.6148 68.8155C67.8142 60.8369 61.9442 54.9975 61.4327 54.7108C58.8923 53.2844 49.8086 58.0079 49.1911 62.8412C48.6493 67.0814 51.7664 69.374 53.1598 69.9708C56.1126 71.2844 62.5375 72.8924 64.6148 68.8155Z" fill="white"/>
  </g>
  <path d="M92.0523 64.3287C95.6307 64.9156 97.9911 68.6855 97.3248 72.7489C96.712 76.4859 93.7528 79.1669 90.4978 79.1176C88.686 78.6574 86.8612 77.8669 85.7234 76.5923C85.2748 75.9875 84.9157 75.2994 84.6656 74.5532C84.6102 74.2945 84.5765 74.0237 84.5676 73.7402C84.8412 69.0768 87.3408 66.1601 89.6208 64.4433C90.4021 64.2407 91.2234 64.1928 92.0523 64.3287Z" fill="#3B1E04"/>
  <path d="M62.2402 57.3179C58.7739 56.3307 55.0548 58.7211 53.9337 62.6571C52.9207 66.2141 54.3764 69.8153 57.2241 71.2048C60.0949 71.7114 63.2696 71.4596 64.6166 68.8163C66.3879 64.3991 65.297 60.6381 63.9293 58.1117C63.4208 57.7642 62.8555 57.4932 62.2402 57.3179Z" fill="#3B1E04"/>
  <ellipse cx="87.1247" cy="71.6705" rx="1.52195" ry="2.38665" transform="rotate(20.0362 87.1247 71.6705)" fill="white"/>
  <ellipse cx="1.52195" cy="2.38665" rx="1.52195" ry="2.38665" transform="matrix(-0.995928 -0.0901567 -0.0901567 0.995928 64.9159 63.6149)" fill="white"/>
  <ellipse cx="89.1214" cy="74.7792" rx="1.09554" ry="1.10459" transform="rotate(20.0362 89.1214 74.7792)" fill="white"/>
  <ellipse cx="1.09554" cy="1.10459" rx="1.09554" ry="1.10459" transform="matrix(-0.995928 -0.0901567 -0.0901567 0.995928 61.2447 66.8156)" fill="white"/>
  <path d="M84.5451 80.3773C83.6569 84.3048 76.1113 86.0418 71.4417 84.9858C66.7721 83.9298 61.3874 79.2686 62.2756 75.3411C63.1638 71.4137 68.5279 69.2891 74.677 70.6797C80.826 72.0703 85.4333 76.4498 84.5451 80.3773Z" fill="#FF2F00"/>
  <path d="M74.9441 89.7167C72.7746 90.0339 68.1397 88.9799 66.321 87.7722C66.0547 87.5954 65.5895 87.7205 65.5274 88.034C64.7421 92.0009 64.5006 97.3947 68.4264 98.2825C72.4385 99.1898 74.5391 94.2257 75.5396 90.2867C75.6179 89.9786 75.2586 89.6707 74.9441 89.7167Z" fill="#7A1700"/>
  <path d="M69.8292 91.6057C71.7542 92.0411 73.2876 93.1556 74.052 94.4986C72.8365 96.9786 71.0357 98.872 68.4262 98.2819C65.7963 97.687 65.0376 95.0702 65.0588 92.2146C66.3123 91.4697 68.0448 91.2021 69.8292 91.6057Z" fill="#D52E08"/>
  <ellipse opacity="0.56" cx="78.9471" cy="75.4638" rx="3.29829" ry="1.27961" transform="rotate(35.3211 78.9471 75.4638)" fill="white"/>
  <defs>
    <filter id="filter0_i_100_2990" x="91.9599" y="23.3593" width="56.7285" height="25.8582" filterUnits="userSpaceOnUse" color-interpolation-filters="sRGB">
      <feFlood flood-opacity="0" result="BackgroundImageFix"/>
      <feBlend mode="normal" in="SourceGraphic" in2="BackgroundImageFix" result="shape"/>
      <feColorMatrix in="SourceAlpha" type="matrix" values="0 0 0 0 0 0 0 0 0 0 0 0 0 0 0 0 0 0 127 0" result="hardAlpha"/>
      <feOffset/>
      <feGaussianBlur stdDeviation="2.58357"/>
      <feComposite in2="hardAlpha" operator="arithmetic" k2="-1" k3="1"/>
      <feColorMatrix type="matrix" values="0 0 0 0 1 0 0 0 0 0.657111 0 0 0 0 0.177067 0 0 0 0.25 0"/>
      <feBlend mode="normal" in2="shape" result="effect1_innerShadow_100_2990"/>
    </filter>
    <filter id="filter1_i_100_2990" x="18.0592" y="5.2283" width="51.7539" height="32.8216" filterUnits="userSpaceOnUse" color-interpolation-filters="sRGB">
      <feFlood flood-opacity="0" result="BackgroundImageFix"/>
      <feBlend mode="normal" in="SourceGraphic" in2="BackgroundImageFix" result="shape"/>
      <feColorMatrix in="SourceAlpha" type="matrix" values="0 0 0 0 0 0 0 0 0 0 0 0 0 0 0 0 0 0 127 0" result="hardAlpha"/>
      <feOffset/>
      <feGaussianBlur stdDeviation="2.58357"/>
      <feComposite in2="hardAlpha" operator="arithmetic" k2="-1" k3="1"/>
      <feColorMatrix type="matrix" values="0 0 0 0 1 0 0 0 0 0.657111 0 0 0 0 0.177067 0 0 0 0.25 0"/>
      <feBlend mode="normal" in2="shape" result="effect1_innerShadow_100_2990"/>
    </filter>
    <filter id="filter2_d_100_2990" x="84.5694" y="61.8995" width="17.1602" height="17.7674" filterUnits="userSpaceOnUse" color-interpolation-filters="sRGB">
      <feFlood flood-opacity="0" result="BackgroundImageFix"/>
      <feColorMatrix in="SourceAlpha" type="matrix" values="0 0 0 0 0 0 0 0 0 0 0 0 0 0 0 0 0 0 127 0" result="hardAlpha"/>
      <feOffset dx="0.430595" dy="-0.430595"/>
      <feComposite in2="hardAlpha" operator="out"/>
      <feColorMatrix type="matrix" values="0 0 0 0 0.313726 0 0 0 0 0.156863 0 0 0 0 0.0117647 0 0 0 1 0"/>
      <feBlend mode="normal" in2="BackgroundImageFix" result="effect1_dropShadow_100_2990"/>
      <feBlend mode="normal" in="SourceGraphic" in2="effect1_dropShadow_100_2990" result="shape"/>
    </filter>
    <filter id="filter3_d_100_2990" x="48.6979" y="54.0218" width="16.8663" height="17.3964" filterUnits="userSpaceOnUse" color-interpolation-filters="sRGB">
      <feFlood flood-opacity="0" result="BackgroundImageFix"/>
      <feColorMatrix in="SourceAlpha" type="matrix" values="0 0 0 0 0 0 0 0 0 0 0 0 0 0 0 0 0 0 127 0" result="hardAlpha"/>
      <feOffset dx="-0.430595" dy="-0.430595"/>
      <feComposite in2="hardAlpha" operator="out"/>
      <feColorMatrix type="matrix" values="0 0 0 0 0.313726 0 0 0 0 0.156863 0 0 0 0 0.0117647 0 0 0 1 0"/>
      <feBlend mode="normal" in2="BackgroundImageFix" result="effect1_dropShadow_100_2990"/>
      <feBlend mode="normal" in="SourceGraphic" in2="effect1_dropShadow_100_2990" result="shape"/>
    </filter>
  </defs>
</svg>
